<svg width="24" height="24" viewBox="0 0 24 24" fill="none" xmlns="http://www.w3.org/2000/svg">
<path d="M13.7765 3.10222L14.0353 2.1363V2.1363L13.7765 3.10222ZM15.8978 5.22354L14.9319 5.48236V5.48236L15.8978 5.22354ZM10.2235 3.10222L10.4824 4.06815L10.4824 4.06815L10.2235 3.10222ZM8.10222 5.22354L7.1363 4.96472V4.96472L8.10222 5.22354ZM12 22C12.5523 22 13 21.5523 13 21C13 20.4477 12.5523 20 12 20V21V22ZM3.09202 20.782L3.54601 19.891L3.54601 19.891L3.09202 20.782ZM2.21799 19.908L3.10899 19.454H3.10899L2.21799 19.908ZM20.908 7.21799L21.362 6.32698V6.32698L20.908 7.21799ZM21.782 8.09202L20.891 8.54601L20.891 8.54601L21.782 8.09202ZM3.09202 7.21799L3.54601 8.10899H3.54601L3.09202 7.21799ZM2.21799 8.09202L1.32698 7.63803L2.21799 8.09202ZM21 11C21 11.5523 21.4477 12 22 12C22.5523 12 23 11.5523 23 11H22H21ZM17.3977 17.2537L18.0116 16.4644V16.4644L17.3977 17.2537ZM20.6023 17.2537L21.2163 18.0431L21.2163 18.0431L20.6023 17.2537ZM17.3977 19.7463L18.0116 20.5356V20.5356L17.3977 19.7463ZM20.6023 19.7463L21.2163 18.9569H21.2163L20.6023 19.7463ZM21.045 20.1375L21.8435 19.5354V19.5354L21.045 20.1375ZM21.2114 20.469L20.2505 20.746L20.2505 20.746L21.2114 20.469ZM16.7886 20.469L17.7495 20.746V20.746L16.7886 20.469ZM16.955 20.1375L17.7534 20.7395V20.7395L16.955 20.1375ZM21.2114 16.531L20.2505 16.254V16.254L21.2114 16.531ZM21.045 16.8625L21.8435 17.4646V17.4646L21.045 16.8625ZM16.955 16.8625L16.1565 17.4646V17.4646L16.955 16.8625ZM16.7886 16.531L15.8278 16.808V16.808L16.7886 16.531ZM16 14C15.4477 14 15 14.4477 15 15C15 15.5523 15.4477 16 16 16V15V14ZM22 16C22.5523 16 23 15.5523 23 15C23 14.4477 22.5523 14 22 14V15V16ZM16 21C15.4477 21 15 21.4477 15 22C15 22.5523 15.4477 23 16 23V22V21ZM22 23C22.5523 23 23 22.5523 23 22C23 21.4477 22.5523 21 22 21V22V23ZM12 3V4C12.9944 4 13.2954 4.00859 13.5176 4.06815L13.7765 3.10222L14.0353 2.1363C13.4946 1.99141 12.8656 2 12 2V3ZM16 7H17C17 6.13441 17.0086 5.50545 16.8637 4.96472L15.8978 5.22354L14.9319 5.48236C14.9914 5.70464 15 6.00565 15 7H16ZM13.7765 3.10222L13.5176 4.06815C14.2078 4.25308 14.7469 4.79218 14.9319 5.48236L15.8978 5.22354L16.8637 4.96472C16.4938 3.58436 15.4156 2.50617 14.0353 2.1363L13.7765 3.10222ZM12 3V2C11.1344 2 10.5054 1.99141 9.96472 2.1363L10.2235 3.10222L10.4824 4.06815C10.7046 4.00859 11.0056 4 12 4V3ZM8 7H9C9 6.00565 9.00859 5.70464 9.06815 5.48236L8.10222 5.22354L7.1363 4.96472C6.99141 5.50545 7 6.13441 7 7H8ZM10.2235 3.10222L9.96472 2.1363C8.58436 2.50617 7.50617 3.58436 7.1363 4.96472L8.10222 5.22354L9.06815 5.48236C9.25308 4.79218 9.79218 4.25308 10.4824 4.06815L10.2235 3.10222ZM5.2 7V8H8V7V6H5.2V7ZM8 7V8H16V7V6H8V7ZM16 7V8H18.8V7V6H16V7ZM12 21V20H5.20142V21V22H12V21ZM5.20142 21V20C4.6244 20 4.25174 19.9992 3.96813 19.9761C3.69613 19.9539 3.59537 19.9162 3.54601 19.891L3.09202 20.782L2.63803 21.673C3.01649 21.8659 3.4099 21.9371 3.80538 21.9694C4.18926 22.0008 4.65739 22 5.20142 22V21ZM2 17.8H1C1 18.3436 0.999222 18.8114 1.03057 19.195C1.06287 19.5904 1.13419 19.9836 1.32698 20.362L2.21799 19.908L3.10899 19.454C3.0838 19.4045 3.04612 19.3038 3.02393 19.0322C3.00078 18.7488 3 18.3766 3 17.8H2ZM3.09202 20.782L3.54601 19.891C3.35785 19.7951 3.20487 19.6422 3.10899 19.454L2.21799 19.908L1.32698 20.362C1.6146 20.9265 2.07354 21.3854 2.63803 21.673L3.09202 20.782ZM18.8 7V8C19.3766 8 19.7488 8.00078 20.0322 8.02393C20.3038 8.04612 20.4045 8.0838 20.454 8.10899L20.908 7.21799L21.362 6.32698C20.9836 6.13419 20.5904 6.06287 20.195 6.03057C19.8114 5.99922 19.3436 6 18.8 6V7ZM22 10.2H23C23 9.65645 23.0008 9.18864 22.9694 8.80497C22.9371 8.40963 22.8658 8.01641 22.673 7.63803L21.782 8.09202L20.891 8.54601C20.9162 8.59545 20.9539 8.69617 20.9761 8.96784C20.9992 9.25117 21 9.62345 21 10.2H22ZM20.908 7.21799L20.454 8.10899C20.6422 8.20487 20.7951 8.35785 20.891 8.54601L21.782 8.09202L22.673 7.63803C22.3854 7.07354 21.9265 6.6146 21.362 6.32698L20.908 7.21799ZM5.2 7V6C4.65645 6 4.18864 5.99922 3.80497 6.03057C3.40963 6.06287 3.01641 6.13419 2.63803 6.32698L3.09202 7.21799L3.54601 8.10899C3.59545 8.0838 3.69617 8.04612 3.96784 8.02393C4.25117 8.00078 4.62345 8 5.2 8V7ZM2 10.2H3C3 9.62345 3.00078 9.25117 3.02393 8.96784C3.04612 8.69617 3.0838 8.59545 3.10899 8.54601L2.21799 8.09202L1.32698 7.63803C1.13419 8.01641 1.06287 8.40963 1.03057 8.80497C0.999222 9.18864 1 9.65645 1 10.2H2ZM3.09202 7.21799L2.63803 6.32698C2.07354 6.6146 1.6146 7.07354 1.32698 7.63803L2.21799 8.09202L3.10899 8.54601C3.20487 8.35785 3.35785 8.20487 3.54601 8.10899L3.09202 7.21799ZM22 10.2H21V11H22H23V10.2H22ZM2 17.8H3V10.2H2H1V17.8H2ZM19 18.5L19.6139 17.7106L18.0116 16.4644L17.3977 17.2537L16.7837 18.0431L18.3861 19.2894L19 18.5ZM16.75 15.9631H17.75V15H16.75H15.75V15.9631H16.75ZM21.25 15H20.25V15.9631H21.25H22.25V15H21.25ZM20.6023 17.2537L19.9884 16.4644L18.3861 17.7106L19 18.5L19.6139 19.2894L21.2163 18.0431L20.6023 17.2537ZM16.75 22H17.75V21.0369H16.75H15.75V22H16.75ZM17.3977 19.7463L18.0116 20.5356L19.6139 19.2894L19 18.5L18.3861 17.7106L16.7837 18.9569L17.3977 19.7463ZM19 18.5L18.3861 19.2894L19.9884 20.5356L20.6023 19.7463L21.2163 18.9569L19.6139 17.7106L19 18.5ZM21.25 21.0369H20.25V22H21.25H22.25V21.0369H21.25ZM20.6023 19.7463L19.9884 20.5356C20.115 20.6341 20.1813 20.686 20.2282 20.7264C20.268 20.7607 20.2621 20.7601 20.2466 20.7395L21.045 20.1375L21.8435 19.5354C21.6591 19.291 21.4102 19.1078 21.2163 18.9569L20.6023 19.7463ZM21.25 21.0369H22.25C22.25 20.8052 22.2591 20.4934 22.1722 20.192L21.2114 20.469L20.2505 20.746C20.2417 20.7155 20.2442 20.704 20.2466 20.7489C20.2497 20.8047 20.25 20.8819 20.25 21.0369H21.25ZM21.045 20.1375L20.2466 20.7395C20.2503 20.7445 20.2508 20.7469 20.2505 20.746L21.2114 20.469L22.1722 20.192C22.1035 19.9536 21.9914 19.7316 21.8435 19.5354L21.045 20.1375ZM16.75 21.0369H17.75C17.75 20.8819 17.7503 20.8047 17.7534 20.7489C17.7558 20.704 17.7583 20.7155 17.7495 20.746L16.7886 20.469L15.8278 20.192C15.7409 20.4934 15.75 20.8052 15.75 21.0369H16.75ZM17.3977 19.7463L16.7837 18.9569C16.5898 19.1078 16.3409 19.291 16.1565 19.5354L16.955 20.1375L17.7534 20.7395C17.7379 20.7601 17.732 20.7607 17.7718 20.7264C17.8187 20.686 17.885 20.6341 18.0116 20.5356L17.3977 19.7463ZM16.7886 20.469L17.7495 20.746C17.7492 20.7469 17.7497 20.7445 17.7534 20.7395L16.955 20.1375L16.1565 19.5354C16.0086 19.7316 15.8965 19.9536 15.8278 20.192L16.7886 20.469ZM21.25 15.9631H20.25C20.25 16.1181 20.2497 16.1953 20.2466 16.2511C20.2442 16.296 20.2417 16.2845 20.2505 16.254L21.2114 16.531L22.1722 16.808C22.2591 16.5066 22.25 16.1948 22.25 15.9631H21.25ZM20.6023 17.2537L21.2163 18.0431C21.4102 17.8922 21.6591 17.709 21.8435 17.4646L21.045 16.8625L20.2466 16.2604C20.2621 16.2399 20.268 16.2393 20.2282 16.2736C20.1813 16.314 20.115 16.3659 19.9884 16.4644L20.6023 17.2537ZM21.2114 16.531L20.2505 16.254C20.2508 16.2531 20.2503 16.2555 20.2466 16.2605L21.045 16.8625L21.8435 17.4646C21.9914 17.2684 22.1035 17.0464 22.1722 16.808L21.2114 16.531ZM17.3977 17.2537L18.0116 16.4644C17.885 16.3659 17.8187 16.314 17.7718 16.2736C17.732 16.2393 17.7379 16.2399 17.7534 16.2604L16.955 16.8625L16.1565 17.4646C16.3409 17.709 16.5898 17.8922 16.7837 18.0431L17.3977 17.2537ZM16.75 15.9631H15.75C15.75 16.1948 15.7409 16.5066 15.8278 16.808L16.7886 16.531L17.7495 16.254C17.7583 16.2845 17.7558 16.296 17.7534 16.2511C17.7503 16.1953 17.75 16.1181 17.75 15.9631H16.75ZM16.955 16.8625L17.7534 16.2605C17.7497 16.2555 17.7492 16.2531 17.7495 16.254L16.7886 16.531L15.8278 16.808C15.8965 17.0464 16.0086 17.2684 16.1565 17.4646L16.955 16.8625ZM16 15V16H16.75V15V14H16V15ZM16.75 15V16H21.25V15V14H16.75V15ZM21.25 15V16H22V15V14H21.25V15ZM16 22V23H16.75V22V21H16V22ZM16.75 22V23H21.25V22V21H16.75V22ZM21.25 22V23H22V22V21H21.25V22Z" fill="white"/>
</svg>
